<?xml version="1.0" encoding="UTF-8" standalone="no"?>
<!-- Created with Inkscape (http://www.inkscape.org/) -->

<svg
   width="400"
   height="400"
   viewBox="0 0 400 400"
   version="1.1"
   id="svg5"
   xml:space="preserve"
   inkscape:export-filename="bitmap.svg"
   inkscape:export-xdpi="96"
   inkscape:export-ydpi="96"
   xmlns:inkscape="http://www.inkscape.org/namespaces/inkscape"
   xmlns:sodipodi="http://sodipodi.sourceforge.net/DTD/sodipodi-0.dtd"
   xmlns="http://www.w3.org/2000/svg"
   xmlns:svg="http://www.w3.org/2000/svg"><sodipodi:namedview
     id="namedview7"
     pagecolor="#ffffff"
     bordercolor="#000000"
     borderopacity="0.25"
     inkscape:showpageshadow="2"
     inkscape:pageopacity="0.0"
     inkscape:pagecheckerboard="0"
     inkscape:deskcolor="#d1d1d1"
     inkscape:document-units="px"
     showgrid="false" /><defs
     id="defs2" /><g
     inkscape:groupmode="layer"
     id="layer2"
     inkscape:label="Layer 2"
     style="display:inline"><path
       style="display:inline;fill:#040404;stroke:none;stroke-width:0.8"
       d="m 38.101234,20.68495 c -20.26704,2.10664 -17.14488,51.86864 -15.63864,68.42872 6.03824,66.3848 5.31512,128.4896 3.59072,195.2 -0.49768,19.2536 -12.72632,58.668 -1.84152,75.7736 5.34224,8.3952 15.46016,5.2792 23.48944,5.0544 21.75616,-0.6096 43.0864,-6.0992 64.800006,-7.2096 85.82,-4.3896 168.2784,33.12 255.1608,18.648 8.2944,-1.3816 7.4888,-12.3384 7.128,-18.6664 -1.1576,-20.3192 -1.0448,-40.3104 -2.1792,-60.8 -2.0512,-37.0408 4.6856,-73.5712 6.2192,-110.4 1.1256,-27.056 -3.3936,-53.7472 -1.364,-80.8 1.4912,-19.8632 3.632,-38.41664 2.504,-58.4 -0.3768,-6.68248 1.8768,-15.57936 -2.6664,-21.31688 -5.8168,-7.34528 -15.6336,-2.52336 -23.2024,-2.19472 -19.54,0.84856 -39.5936,-0.4884 -59.2,-0.4884 -58.8992,0 -118.0656,1.1888 -176.8,1.35128 -26.025606,0.0721 -54.534966,-6.82704 -80.000006,-4.18 M 210.10124,32.31367 c -0.0352,37.04224 -15.9056,108.4432 -54.4,124.3344 -41.5136,17.1376 -102.120726,-42.5368 -114.602326,-78.7344 -4.9304,-14.29848 -2.99768,-27.62216 -2.99768,-42.4 l 108.000006,-3.18592 64,-0.0141 m 17.6,-0.8 c 43.788,2.49368 88.4312,-4.10992 132,1.6 -3.7704,29.25776 -14.2208,57.6904 -23.0576,85.6 -3.6424,11.5048 -9.3576,27.6192 -20.9504,33.2232 -17.1552,8.2912 -36.1944,-6.0616 -48.1008,-17.2472 -28.2864,-26.5736 -47.9184,-63.95984 -39.8912,-103.176 m -101.6,49.6 c -11.0296,-9.20368 -19.044,-2.9284 -5.6,4 v 0.8 c -5.8424,0.604 -26.620806,-3.0648 -30.089606,0.8952 -5.3144,6.0672 28.154406,4.5472 31.689606,3.9048 -10.4192,15.6048 -6.3416,15.1208 6.4,4.8 0.1816,3.08 1.476,26.0584 6.628,23.22 5.0432,-2.7792 -1.256,-20.3456 -1.828,-24.82 17.1848,12.4904 20.1096,9.508 4.8,-4.8 4.0496,-0.1496 28.292,1.3744 28.292,-3.1496 0,-5.3544 -25.8504,-1.9624 -29.892,-1.6504 11.6232,-11.6916 5.8272,-18.91776 -4.8,-5.6 -0.6728,-3.408 -1.9704,-30.55408 -8.9272,-25.28984 -5.388,4.07728 2.7432,21.99688 3.3272,27.68984 m 165.6,-2.4 c -15.948,-14.732 -19.276,-11.95136 -4.8,4 -4.7552,-0.372 -34.5336,-2.1168 -33.9808,3.1048 0.6688,6.3184 23.6344,1.7 28.3808,1.6952 -16.1176,16.2544 0.224,7.2264 9.6,0.8 -0.3504,4.5144 -5.8256,35.0184 2.2896,34.1096 5.3312,-0.5976 2.5672,-27.004 2.5104,-31.7096 10.1272,7.2536 18.9992,5.72 5.6,-2.4 v -0.8 c 3.956,0 28.456,2.2488 27.7096,-3.7256 -0.4688,-3.7536 -24.752,-1.368 -28.5096,-1.0744 17.3672,-15.11896 14.9432,-18.71152 -4,-4.8 0.6712,-3.69968 4.5632,-25.56368 -1.4232,-24.22304 -5.5192,1.23608 -3.2776,20.3532 -3.3768,25.02304 m 76.8,-18.4 0.8,104 -52,2.4 v -0.8 c 12.0576,-2.8848 18.9456,-18.944 23.1392,-29.6 9.7784,-24.8416 17.3264,-51.6872 28.0608,-76 m -150.4,8.8 12,33.6 c -8.5224,-2.28 -14.496,-2.592 -23.2,-0.8 2.6544,-10.8264 5.3624,-23.20352 11.2,-32.8 m -91.2,12 -0.8,0.8 0.8,-0.8 m -91.200006,4.8 c 12.00416,31.6888 51.5552,65.0568 80.000006,81.6 v 0.8 c -19.800806,0 -54.758406,8.0824 -72.363366,-2.0232 -4.94048,-2.836 -3.4332,-15.3824 -3.79096,-20.3768 -1.31824,-18.4016 -10.7312,-42.0728 -3.84568,-60 m 184.000006,72.8 h -0.8 c -11.8208,-3.9488 -17.7064,-7.1184 -27.2,-15.2 8.2616,-41.428 72.584,-19.916 44.1384,9.348 -4.2744,4.3968 -10.9216,3.228 -16.1384,5.852 m 39.2,-17.6 c 15.7424,11.6536 26.8472,20.5016 45.6,26.4 v 0.8 l -60,4 c 6.6944,-10.8056 10.7168,-19.0592 14.4,-31.2 m -78.4,8 c 1.592,8.8256 7.6656,16.1072 12.8,23.2 l -44,-0.8 c 9.6272,-9.0448 21.5096,-10.7408 29.6,-22.4 h 1.6 m 188.8,26.4 -7.9296,88.8 2.3296,102.4 c -39.2344,0.016 -76.7448,3.1288 -116,-1.1128 -38.1936,-4.1264 -75.7296,-15.9504 -114.4,-16.4728 -22.2096,-0.3 -43.633606,3.4424 -65.600006,6.0016 -8.14024,0.9488 -22.65632,2.9488 -29.94848,-1.6128 -5.1252,-3.2056 -0.65008,-30.548 -1.09376,-37.2032 -2.12696,-31.9032 3.11456,-63.2952 3.04424,-95.2032 -0.0202,-9.1472 -3.89592,-30.1496 1.45208,-37.776 6.22016,-8.8704 30.60768,-5.2696 40.14592,-7.0208 0,37.0104 -7.20048,73.3256 -10.18256,110.4 -0.72936,9.068 -7.12536,31.6048 -1.74392,38.9704 7.04792,9.6456 40.380886,2.6296 51.926486,2.6296 50.1344,0 101.0928,1.1696 151.2,3.2712 11.9392,0.5016 49.9424,11.3432 57.4488,0.5776 6.5464,-9.3872 -3.4,-34.5728 -4.9104,-45.4488 -5.008,-36.0704 -1.848,-73.3736 -1.3384,-109.6 l 45.6,-1.6 m -231.2,3.2 2.4,33.6 -49.600006,-3.2 3.2,-32.8 44.000006,2.4 m 169.6,-1.6 2.4,33.6 -28,0.8 -4.8,-33.6 30.4,-0.8 m -162.4,1.6 c 19.744,4.0048 42.2624,3.1928 62.4,3.2 l 4,29.6 c -12.3368,0.012 -52.0768,10.1688 -61.2112,0.5848 -5.0536,-5.3032 -4.6632,-26.0448 -5.1888,-33.3848 m 70.4,3.2 c 12.4968,0 40.8208,-7.184 51.5112,-2.0368 5.1512,2.48 7.7784,26.6712 3.548,30.2576 -4.5832,3.8864 -47.4272,4.1928 -51.28,-0.3608 -3.8096,-4.5032 -2.904,-21.6384 -3.7792,-27.86 m 64,140.8 -56.8,-1.6 -0.8,-37.6 c 9.5528,-1.6536 50.4656,-6.3744 57.1696,0.94 6.06,6.612 1.5128,29.9984 0.4304,38.26 m 36.8,-37.6 3.2,40 -31.2,-1.6 -2.4,-40.8 30.4,2.4 m -131.2,-0.1944 c 5.2552,-0.2864 24.8776,-2.624 28.3424,1.1488 4.5304,4.9336 3.42,35.372 -3.6408,36.2344 -11.6232,1.4208 -41.1056,4.7776 -51.248,-1.404 -3.652,-2.2264 -8.0712,-30.9408 -4.724,-33.52 5.4512,-4.2 24.2144,-2.0752 31.2704,-2.4592 m -38.4,36.1944 -66.400006,-3.2 1.6,-29.6 c 14.972,1.9616 30.558406,-0.3144 45.600006,-0.8408 4.1776,-0.1464 13.1328,-2.7072 16.3056,0.9816 5.6152,6.5264 2.8944,24.5992 2.8944,32.6592 z"
       id="path202" /></g></svg>
