<?xml version="1.0" encoding="UTF-8" standalone="no"?>
<!-- Created with Inkscape (http://www.inkscape.org/) -->

<svg
   width="512"
   height="512"
   viewBox="0 0 512 512"
   version="1.1"
   id="svg5"
   xmlns:inkscape="http://www.inkscape.org/namespaces/inkscape"
   xmlns:sodipodi="http://sodipodi.sourceforge.net/DTD/sodipodi-0.dtd"
   xmlns="http://www.w3.org/2000/svg"
   xmlns:svg="http://www.w3.org/2000/svg">
  <sodipodi:namedview
     id="namedview7"
     pagecolor="#ffffff"
     bordercolor="#000000"
     borderopacity="0.25"
     inkscape:showpageshadow="2"
     inkscape:pageopacity="0.0"
     inkscape:pagecheckerboard="0"
     inkscape:deskcolor="#d1d1d1"
     inkscape:document-units="px"
     showgrid="false" />
  <defs
     id="defs2" />
  <g
     inkscape:label="Layer 1"
     inkscape:groupmode="layer"
     id="layer1">
    <g
       id="g1314">
      <path
         style="fill:#000000;stroke-width:0.54613"
         d="m 23.43682,215.32536 c 0.157483,1.10239 0.289379,2.20872 0.47245,3.30714 0.343946,2.06367 1.122941,4.081 1.417348,6.14185 0.06681,0.4677 -0.114586,0.95901 0,1.41735 0.05402,0.21606 0.418434,0.25638 0.47245,0.47245 0.516679,2.06672 -0.350746,4.50982 0,6.61429 0.317716,1.90631 0.472688,3.78054 0.944898,5.66939 0.162931,0.65173 -0.449098,3.3305 0,3.77961 0.787416,0.7874 2.203341,-0.32529 3.307147,-0.47246 6.081987,-0.81093 11.911764,-2.37772 17.953078,-3.30715 1.283539,-0.19747 2.480957,-0.94489 3.779597,-0.94489 0.157482,0 -0.02228,0.31654 0,0.47244 0.65368,4.57576 0.472449,1.12452 0.472449,6.14185 0,7.91244 0.47245,15.70584 0.47245,23.62247 0,2.41539 -0.47245,4.64542 -0.47245,7.08674 0,1.17917 -0.376684,3.122 0,4.25205 0.806522,2.41956 0.47245,-3.17204 0.47245,1.8898 0,0.78741 0.556787,1.80545 0,2.36224 -0.111357,0.11136 -0.47245,-0.15749 -0.47245,0 0,0.47245 0.944899,0 1.417349,0 2.834696,0 5.669393,0 8.504091,0 5.401352,0 10.685787,-0.11394 16.06328,-0.47245 1.099938,-0.0733 2.527647,0.7795 3.307149,0 0.787416,-0.78742 -0.264087,-2.21324 -0.472451,-3.30715 -0.450759,-2.36647 -1.105766,-4.69795 -1.417349,-7.08673 -0.407882,-3.12712 -0.124195,-6.31469 -0.47245,-9.449 -0.326063,-2.93456 -1.447431,-5.62869 -1.889796,-8.50409 -0.143682,-0.93391 0.07246,-1.89257 0,-2.8347 -0.341042,-4.43348 -0.472451,-8.7754 -0.472451,-13.22858 0,-2.96506 1.454692,-1.41734 5.669395,-1.41734 6.771774,0 13.543549,0 20.315316,0 1.8898,0 3.87657,0.5976 5.66939,0 0.14941,-0.0498 0,-0.31498 0,-0.47245 0,-1.10239 0.0459,-2.20573 0,-3.30716 -0.11164,-2.67951 -0.36936,-5.35177 -0.47243,-8.03163 -0.0708,-1.83951 0.0453,-15.54552 0,-15.59084 -0.45916,-0.45913 -1.25096,-0.35629 -1.8898,-0.47244 -1.2492,-0.22713 -2.51213,-0.39789 -3.7796,-0.47245 -13.791217,-0.81125 -27.488552,1.00079 -41.103103,2.36224 -3.308119,0.33082 -6.618942,0.57796 -9.921439,0.9449 -1.508453,0.16761 -3.233894,-0.29812 -4.724494,0 -0.345305,0.0691 -0.596295,0.42264 -0.944899,0.47245 -2.307814,0.32969 -2.486323,-0.0871 -4.724495,0.47246 -1.031153,0.25777 -2.266246,-0.20819 -3.307147,0 -0.345303,0.0691 -0.599593,0.40338 -0.944899,0.47244 -1.840201,0.36804 -3.574573,-0.33874 -5.196943,0.47246 -0.748302,0.37414 -5.268421,-0.40098 -5.669393,0 -0.111358,0.11135 0,0.31495 0,0.47244 -0.787417,0.15749 -1.574832,0.31497 -2.362248,0.47245 z"
         id="path1028" />
      <path
         id="path1030"
         style="fill:#000000;stroke-width:0.578024"
         d="m 143.522,209.72135 c -0.88859,0.12693 -1.66796,0.66719 -2.50136,1.00054 -1.44792,0.63452 -3.50407,-0.49886 -5.00069,0 -0.70716,0.23572 -1.29191,0.76281 -1.99907,0.99853 -1.77289,0.59095 -3.88138,1.02934 -5.50096,2.00108 -1.58435,0.9506 -5.38009,5.00898 -6.49948,6.5015 -0.99797,1.33061 -1.02076,3.19331 -2.00109,4.50042 -0.28286,0.37715 -0.75797,0.59427 -1.00054,0.99853 -0.86918,1.4486 -0.76058,3.7622 -1.99907,5.00068 -0.26354,0.26355 -0.79379,0.19016 -1.00054,0.50028 -0.3812,0.57182 -0.19293,1.3864 -0.50026,2.00108 -1.67142,3.34282 -2.97726,6.91952 -4.00016,10.49963 -0.24659,0.86306 -0.88921,1.61069 -1.00054,2.50136 -0.22969,1.83747 -0.0342,4.6353 -0.50026,6.49948 -1.28421,5.13687 -1.79909,11.79782 -0.49827,17.00114 0.19171,0.76681 -0.24944,1.753 0,2.50135 0.66673,2.00017 0.16537,0.16535 1.49881,1.4988 0.27212,0.27212 1.12442,2.12497 1.50081,2.50136 0.75005,0.75006 1.74926,1.24899 2.49933,1.99906 0.42495,0.42495 0.5756,1.07585 1.00054,1.50081 0.5271,0.52709 1.3619,0.61704 2.00108,1.00054 1.41671,0.85003 2.63781,2.1822 4.00016,2.99962 2.58258,1.54953 6.5836,2.13666 9.50111,2.50134 1.46827,0.18354 3.03982,-0.24309 4.4984,0 5.06172,0.84362 10.51317,0.66251 15.50234,-1.00054 1.35898,-0.45299 5.21306,-1.85814 6.49949,-2.50135 0.86931,-0.43465 1.61322,-1.10407 2.50136,-1.4988 0.62801,-0.27912 1.36739,-0.22955 1.99906,-0.50027 2.71889,-1.16522 7.93318,-3.933 10.00138,-6.00123 0.84991,-0.84991 1.33437,-1.99953 2.00109,-2.99961 1.25528,-1.88291 2.77613,-3.82995 3.49987,-6.00123 0.64631,-1.9389 1.10526,-4.02146 1.50082,-5.99922 0.16343,-0.8172 -0.13701,-1.67928 0,-2.50135 1.38267,-8.29616 0.99946,-18.12658 -4.50043,-25.00143 -1.96049,-2.45063 -4.15447,-4.41526 -6.5015,-6.5015 -1.24579,-1.10737 -2.82154,-1.821 -4.00015,-2.99961 -0.26356,-0.26354 -0.23673,-0.73699 -0.50027,-1.00055 -0.61275,-0.61275 -3.88128,-2.03499 -4.50042,-2.49933 -0.29816,-0.22362 -0.23673,-0.73701 -0.50027,-1.00054 -1.21361,-1.21361 -3.57644,-1.54984 -5.00068,-2.49934 -1.53854,-1.02569 -2.35933,-1.68094 -4.00016,-2.50136 -1.16162,-0.5808 -1.8489,-1.92398 -2.99961,-2.49933 -0.44724,-0.22363 -1.02642,0.15812 -1.5008,0 -0.50772,-0.16924 -1.34249,-1.09434 -1.99907,-1.00054 z m -0.17147,26.64547 c 0.53006,2.8e-4 0.98769,0.0581 1.28699,0.20777 3.42934,1.71467 8.39676,3.66189 10.72153,7.14903 0.23363,0.35044 0.70526,0.51691 0.89363,0.89363 0.5706,1.14121 0.83031,2.10844 1.33944,3.12669 0.19978,0.39957 -0.14128,0.91563 0,1.33944 0.16978,0.50936 0.69422,0.84295 0.89362,1.34145 0.65891,1.64725 0.87809,4.98013 0.44783,6.70121 -0.0511,0.20431 -0.38121,0.24602 -0.44783,0.44581 -0.0942,0.28253 0.13319,0.62724 0,0.89362 -0.18836,0.37673 -0.64092,0.55669 -0.89362,0.89364 -0.72178,0.96234 -0.60466,2.9832 -1.78726,3.5745 -1.1003,0.55014 0.40407,-1.29768 -1.33944,0.44581 -0.23546,0.23545 -0.17077,0.70892 -0.44782,0.89363 -0.24781,0.1652 -0.60908,-0.0942 -0.89161,0 -0.63179,0.2106 -1.23315,0.52422 -1.78726,0.89363 -1.8964,1.2643 0.25371,0.71724 -2.23508,1.33944 -1.47934,0.36983 -8.48842,0.19136 -9.82791,0 -0.46617,-0.0666 -0.87216,-0.38735 -1.33943,-0.44581 -2.80306,-0.35037 -1.46567,0.45596 -3.57451,-0.44783 -4.60624,-1.97409 -7.76205,-5.41732 -6.70121,-10.72153 0.0413,-0.20651 0.3968,-0.24149 0.44782,-0.4458 0.10835,-0.43339 -0.0876,-0.9034 0,-1.34145 0.17872,-0.89355 0.71493,-1.78533 0.89363,-2.67887 0.4641,-2.32047 0.38337,-4.15261 1.78524,-6.25541 0.77836,-1.16752 2.23592,-2.05534 3.12871,-3.12668 1.55143,-1.86173 2.05781,-3.85538 4.91395,-4.02033 0.67701,-0.1354 2.93042,-0.65644 4.52059,-0.65559 z" />
      <path
         id="path1034"
         style="fill:#000000;stroke-width:0.552287"
         d="m 222.81044,211.02859 c -1.03974,0.0263 -2.13447,0.17401 -3.31098,0.46813 -6.02235,1.12019 -12.41386,2.06647 -18.15533,4.29926 -1.19668,0.46537 -2.17918,1.3745 -3.34498,1.91256 -4.10081,1.89268 -1.68204,-0.19075 -4.77739,2.3887 -0.69209,0.57674 -1.44706,1.13805 -1.91057,1.91057 -0.25912,0.43184 -0.15573,1.04552 -0.47814,1.43241 -0.50978,0.61173 -1.39235,0.82984 -1.91056,1.43442 -0.46353,0.54076 -0.52895,1.34078 -0.95628,1.91057 -4.42262,5.89679 0.82241,-3.25761 -3.82112,5.25554 -3.38358,6.20322 -2.46132,12.91495 -1.43442,19.58974 1.35157,8.78519 0.36949,12.40062 5.25554,20.54403 0.47777,0.79629 0.77778,1.73206 1.43442,2.3887 0.65663,0.65665 1.59631,0.94819 2.3887,1.43242 3.36519,2.0565 7.16418,4.77743 10.98922,6.21182 7.39854,2.77446 16.0972,3.57501 23.88701,2.86684 3.24028,-0.29457 6.41618,-1.60353 9.5568,-2.3887 2.85159,-0.71289 7.09355,-1.49904 9.55481,-3.34498 2.06399,-1.54801 0.078,-0.28282 1.43442,-1.91056 1.0838,-1.30055 2.21825,-2.55779 3.34297,-3.82312 2.6371,-2.96671 5.47867,-6.09623 6.68997,-10.03295 0.90832,-2.952 1.15606,-6.51485 1.43242,-9.5548 0.83007,-9.13084 0.96016,-13.78196 -3.82112,-21.97844 -0.82618,-1.41631 -1.4049,-2.98753 -2.3887,-4.29927 -0.54054,-0.72073 -1.33582,-1.21846 -1.91257,-1.91055 -0.22797,-0.27358 -0.22632,-0.70448 -0.47813,-0.95629 -0.40603,-0.40603 -1.02638,-0.55024 -1.43242,-0.95628 -0.40603,-0.40603 -0.55026,-1.02639 -0.95629,-1.43242 -0.81204,-0.81207 -1.97006,-1.19314 -2.86683,-1.91056 -0.62179,-0.49745 -0.76988,-1.47085 -1.43242,-1.91256 -0.26503,-0.17668 -0.65411,0.10079 -0.95629,0 -1.21507,-0.40502 -2.23345,-1.83394 -3.34298,-2.3887 -0.28489,-0.14244 -0.6541,0.10079 -0.95628,0 -0.67565,-0.22522 -1.27353,-0.63577 -1.91056,-0.95428 -0.69732,-0.34866 -1.72299,-1.21252 -2.3887,-1.43442 -0.30218,-0.10079 -0.67139,0.14244 -0.95628,0 -0.14245,-0.0713 0.14245,-0.40692 0,-0.47814 -0.37689,-0.42734 -1.00507,0.21367 -1.43242,0 -2.88621,-1.44311 -5.51533,-2.45762 -8.63452,-2.37869 z m -4.92145,26.16166 c 0.60892,0 1.18179,0.29444 1.77252,0.44213 1.75919,0.35184 4.52555,1.08893 6.20181,1.3284 0.4386,0.0627 0.90057,-0.10746 1.33039,0 0.56537,0.14134 4.178,3.04243 4.4293,3.54503 0.54561,1.09122 -1.28498,-0.39873 0.44413,1.33039 0.23351,0.23351 0.70308,0.16736 0.88627,0.44213 0.16383,0.24577 -0.1321,0.62208 0,0.88627 0.066,0.13209 0.3377,-0.10443 0.44213,0 0.0915,0.0915 1.2955,1.65746 1.32838,1.77252 0.75533,2.64363 0.40477,6.76401 -0.44213,9.30472 -0.066,0.19814 -0.37806,0.24399 -0.44413,0.44213 -0.33643,1.00931 -0.004,2.22063 -0.88425,3.10091 -0.23351,0.23351 -0.70309,0.16937 -0.88627,0.44413 -0.16384,0.24576 0.16384,0.64049 0,0.88626 -0.18318,0.27477 -0.62207,0.24399 -0.88625,0.44213 -0.98038,0.73528 -1.42828,1.87041 -2.21665,2.65878 -0.53449,0.53448 -4.05863,0 -4.87343,0 -3.57481,0 -7.81639,-0.58521 -11.07525,-2.21465 -0.47627,-0.23812 -0.83599,-0.68851 -1.33039,-0.88626 -0.27425,-0.1097 -0.62209,0.13209 -0.88627,0 -0.66018,-0.33009 -2.27538,-2.02311 -2.65677,-2.65878 -0.24028,-0.40047 -0.16391,-0.95678 -0.44413,-1.33039 -0.19814,-0.26419 -0.71637,-0.15895 -0.88627,-0.44213 -0.31329,-0.52214 -0.21597,-1.20715 -0.44213,-1.77252 -0.0776,-0.19392 -0.39342,-0.23951 -0.44412,-0.44213 -0.57304,-2.29213 0.83038,-4.31954 1.77252,-6.20382 0.49189,-0.98376 0.64759,-2.19051 1.33039,-3.1009 0.86551,-1.15402 0.89942,-0.48561 1.32839,-1.77252 0.43998,-1.31892 -1.05002,0.90982 0.44212,-1.3284 0.67857,-1.01786 0.2543,0.18983 1.3304,-0.88625 0.23351,-0.23351 0.20862,-0.65275 0.44213,-0.88626 0.65914,-0.65915 4.33822,-3.10092 5.31756,-3.10092 z" />
      <path
         style="fill:#000000;stroke-width:1.32418"
         d="m 266.18008,281.49458 c -1.50378,-4.51131 -1.67072,-4.41665 -2.29105,-10.30972 -0.56764,-5.39264 0,-11.17291 0,-16.6101 0,-6.09857 0.14978,2.07047 -0.57275,-5.15487 -0.29799,-2.97977 0,-6.16398 0,-9.16419 0,-2.5828 0.15816,-4.95843 0.57275,-7.4459 0.28724,-1.72346 -0.55482,-4.06314 0,-5.72763 0.0854,-0.25616 0.48737,-0.31662 0.57276,-0.57277 0.30786,-0.92354 0.43511,-1.90008 0.57276,-2.86381 0,-7.62457 -0.34152,1.13489 0.57278,-3.43658 0.14977,-0.74884 -0.54002,-1.75103 0,-2.29105 0.13499,-0.135 0.43775,0.135 0.57275,0 0.76368,-0.76367 -0.76367,-3.81841 0,-4.58209 0.13499,-0.13501 0.38185,0 0.57277,0 1.33643,0 2.67519,-0.0784 4.00933,0 5.00556,0.29445 9.86784,0.57276 14.89182,0.57276 0.95121,0 1.80217,-0.405 2.29106,0.57275 3.03895,6.07796 6.78443,11.88017 10.3097,17.75564 0.20448,0.34079 0.92006,2.06557 1.14553,2.29106 0.135,0.135 0.43776,-0.13501 0.57276,0 0.0892,0.0892 -0.29505,2.5861 0.57278,1.71827 0.48675,-0.48674 0.65877,-1.23152 1.14551,-1.71827 0.67501,-0.67501 1.66246,-0.99989 2.29106,-1.71828 0.73307,-0.83783 1.03481,-1.98507 1.71828,-2.86383 0.66306,-0.8525 1.64305,-1.42704 2.29105,-2.29104 1.75131,-2.33508 2.53519,-5.56177 4.00933,-8.01867 0.80119,-1.33533 2.15252,-2.58673 2.86383,-4.00934 0.40457,-0.80918 0.0186,-1.16402 0.57275,-1.71829 0.81002,-0.81002 2.29104,0 3.43658,0 5.51746,0 11.10586,-0.26697 16.6101,-0.57276 1.46963,-0.0817 9.38381,-0.9259 9.73696,-0.57277 0.0724,0.0722 0.0751,10.28182 0,10.88249 -0.0749,0.59907 -0.4735,1.12275 -0.57277,1.71828 -0.37184,2.23109 0.32006,4.63277 0,6.87315 -0.31202,2.18423 -1.21631,3.71981 -1.71829,5.72763 -0.58387,2.33554 0.47263,5.08277 0,7.44592 -0.11841,0.592 -0.45435,1.12625 -0.57275,1.71828 -0.72822,3.6411 0.8992,7.8584 0,11.45524 -0.6515,2.60602 -0.60721,5.32707 -1.14554,8.01868 -0.156,0.78012 0.35485,2.15413 0,2.8638 -0.12076,0.2415 -0.50725,0.31082 -0.57276,0.57276 -0.27177,1.08717 0.21982,2.33754 0,3.43657 -0.39364,1.96829 -0.75783,3.7892 -1.14551,5.72763 -0.0875,0.43752 0.23457,1.82191 0,2.29105 -0.89454,1.78908 -12.28898,1.51528 -14.31907,1.7183 -0.78326,0.0784 -1.58696,0.92479 -2.29104,0.57276 -1.3031,-0.65156 -1.32145,-3.76598 -1.71829,-5.15487 -2.29244,-8.02354 -1.70388,-15.5654 -0.57276,-23.48326 0.17077,-1.19536 0.90871,-2.25253 1.14552,-3.43658 0.0875,-0.43749 -0.23455,-1.82188 0,-2.29104 0.78776,-1.57551 0.0969,-2.58158 0.57278,-4.00932 0.13499,-0.40502 0.46922,-0.73137 0.57275,-1.14554 0.14833,-0.59332 0,-1.63429 0,-2.29104 0,-0.19093 0.135,-0.70777 0,-0.57277 -1.76966,1.76965 -2.91745,4.39793 -4.58208,6.30038 -1.77799,2.03199 -3.69567,3.94964 -5.72764,5.72763 -0.32129,0.28112 -0.84365,0.27089 -1.14552,0.57275 -0.135,0.13502 0,0.38186 0,0.57278 -0.38185,0.38183 -0.72386,0.80818 -1.14554,1.14551 -2.41958,1.93567 -4.96122,3.86411 -7.4459,5.72763 -0.7637,0.57276 -1.43725,1.29138 -2.29104,1.71829 -0.17078,0.0854 -0.43777,-0.135 -0.57278,0 -0.31548,0.31548 -0.50746,2.42163 -1.14552,1.14552 -0.54,-1.08 -0.60551,-2.35656 -1.14553,-3.43657 -3.49397,-6.98797 -1.21717,0.10731 -4.00933,-6.87316 -0.29235,-0.73086 -0.22071,-1.58695 -0.57276,-2.29105 -0.2415,-0.48298 -0.84599,-0.6962 -1.14551,-1.14551 -1.07991,-1.61986 -2.34127,-5.98548 -3.43658,-7.44592 -0.65076,-0.86766 -1.71829,-1.56165 -1.71829,-2.29104 0,-1.52736 0.19092,0.19092 -0.57276,-0.57276 -0.26477,-0.26477 0.1729,-1.37246 0,-1.71829 -0.12077,-0.2415 -0.45202,-0.33126 -0.57277,-0.57276 -0.17077,-0.34153 0.38183,-1.14552 0,-1.14552 -0.19092,0 0,0.38184 0,0.57275 0,0.76369 0,1.52737 0,2.29105 0,1.46111 -0.23602,2.0896 -0.57275,3.43657 -0.44744,1.78967 0,5.2602 0,6.87315 0,0.7637 0,1.52737 0,2.29104 0,9.32065 0.58002,18.84305 -0.57277,28.06537 -0.13082,1.04665 0.64678,3.97232 -0.57277,4.5821 -2.37138,1.18569 -7.3772,-0.93172 -9.73695,-1.71828 -1.30164,-0.43388 -3.36549,0.60829 -4.5821,0 -0.2415,-0.12077 -0.38185,-0.38185 -0.57275,-0.57277 -0.95463,-0.38185 -1.90922,-0.7637 -2.86383,-1.14553 z"
         id="path1048" />
      <path
         style="fill:#000000;stroke-width:1.01716"
         d="m 349.83154,218.88933 c 1.05173,3.38189 -1.1198,7.84028 0,11.1997 0.0928,0.27826 0.52946,0.34394 0.62221,0.62221 0.8063,2.4189 -0.59912,5.02382 0.62221,7.46647 0.27825,0.55652 -0.1023,1.25288 0,1.86662 0.32899,1.97394 0.42504,4.58332 1.24441,6.22205 0.66519,1.33041 0,6.33946 0,7.46647 0,6.63687 0,13.27373 0,19.91059 0,1.7878 -0.34879,1.39516 -0.62221,2.48883 -0.35658,1.42633 0,3.45326 0,4.97765 0,0.16553 -0.10275,1.81524 0,1.86661 3.86859,1.9343 9.5495,0.27729 13.68853,0.62221 5.96137,0.49678 11.422,0.62221 17.42177,0.62221 4.56284,0 9.12569,0 13.68853,0 1.71746,0 3.98068,0.40479 5.59985,0 0.44992,-0.11248 0.78965,-0.53126 1.24441,-0.62221 0.8135,-0.1627 1.9022,0.58662 2.48883,0 0.73327,-0.73328 0,-2.07402 0,-3.11103 0,-1.03787 0.0581,-11.14157 0,-11.19971 -0.82962,-0.82961 -0.62221,1.03701 -0.62221,-0.6222 0,-0.78686 0.54873,-5.05113 0,-5.59986 -0.58662,-0.58661 -1.65922,0 -2.48883,0 -4.72725,0 -10.91096,-0.77402 -15.55514,0 -0.64694,0.10782 -1.21269,0.5719 -1.86661,0.62221 -5.30882,0.40837 -5.65685,-0.0942 -9.9553,0.62221 -1.63076,0.27178 -6.95213,0.51434 -7.46647,0 -0.14666,-0.14665 0.0341,-0.41763 0,-0.62221 -0.15496,-0.92971 -1.258,-10.56393 -0.62221,-11.1997 0.14665,-0.14667 0.41481,0 0.62221,0 1.65921,0 3.31842,0 4.97765,0 2.28142,0 4.56789,-0.15176 6.84426,0 0.85324,0.0569 1.63368,0.6222 2.48882,0.6222 0.0225,0 -0.0574,-3.15937 0,-3.73324 0.10523,-1.05229 0.52646,-2.05782 0.62221,-3.11103 0.063,-0.6925 0.007,-9.32597 0,-9.33309 -0.55976,-0.55975 -15.03642,0.42631 -16.79956,0.62221 -0.65185,0.0724 -1.21076,0.62221 -1.86662,0.62221 -0.20741,0 0,-0.4148 0,-0.62221 0,-1.03701 0,-2.07402 0,-3.11103 0,-0.91078 -0.68911,-6.15515 0,-6.84426 0.14666,-0.14665 0.41689,0.0293 0.62221,0 1.24889,-0.17842 2.48433,-0.4438 3.73324,-0.62221 4.55301,-0.65043 9.12886,-0.8299 13.68852,-1.24441 5.44763,-0.49524 11.63757,1.09846 16.79956,-0.62221 0.76013,-0.25337 3.19799,0.53524 3.73323,0 0.58328,-0.58327 0.20193,-6.45682 0,-7.46647 -0.0909,-0.45476 -0.50972,-0.79449 -0.6222,-1.24441 -0.17851,-0.71403 0.52245,-3.83299 0,-4.35544 -0.0957,-0.0957 -6.94694,0 -7.46647,0 -3.36338,0 -6.0419,0.21081 -9.33308,0.6222 -2.4515,0.30644 -5.01037,-0.27289 -7.46648,0 -1.05108,0.11679 -2.05714,0.53439 -3.11103,0.62221 -1.37313,0.11443 -7.99,-0.67154 -9.33309,0 -1.38927,0.69464 -3.2824,0.90537 -4.97764,1.24442 -0.47528,0.095 -1.97918,-0.25483 -2.48883,0 -0.26235,0.13117 -0.34394,0.52945 -0.62221,0.6222 -0.94988,0.31664 -5.69315,0.0933 -6.22205,0.62221 -0.14666,0.14666 0.14665,0.47554 0,0.6222 -0.29331,0.29332 -1.14381,-0.40242 -1.24442,0 -0.2012,0.80484 0,1.65922 0,2.48883 z"
         id="path1054" />
      <path
         style="fill:#000000;stroke-width:1.01716"
         d="m 407.0359,211.67753 c 6.07417,1.46381 12.52073,0.43896 18.66619,0 0.0111,-8e-4 5.34155,-0.2583 5.59984,0 1.66635,1.66634 1.02481,2.40341 2.48883,4.35544 0.70395,0.93859 1.78488,1.55022 2.48882,2.48882 0.55652,0.74203 0.78423,1.6835 1.24442,2.48883 1.21602,2.12804 3.13256,3.45981 4.35544,5.59984 1.52439,4.57319 -0.20355,0.31689 1.24441,2.48883 0.2074,0.4148 0.4148,0.82961 0.6222,1.24441 0.20741,0 0.47556,-0.14666 0.62221,0 0.15913,0.15913 0.57852,2.53251 1.24441,1.86662 0.5686,-0.56859 1.91542,-4.2131 2.48882,-4.97765 0.27827,-0.37101 0.96616,-0.25119 1.24442,-0.62221 0.39352,-0.52468 0.22869,-1.34192 0.62221,-1.86661 0.27825,-0.37101 0.91648,-0.29427 1.24441,-0.62221 0.65586,-0.65586 0.58855,-1.83296 1.24441,-2.48882 0.14665,-0.14666 0.47555,0.14666 0.6222,0 0.29331,-0.29331 -0.29331,-0.9511 0,-1.24441 0.14666,-0.14665 0.47556,0.14665 0.62221,0 0.60467,-0.60468 0.30461,-1.69484 0.62221,-2.48883 0.2074,-0.4148 0.4148,-0.82961 0.62221,-1.24441 0.20739,-0.2074 0.49103,-0.35986 0.62219,-0.6222 0.18551,-0.37101 -0.29331,-0.95111 0,-1.24442 0.14667,-0.14665 0.47556,0.14666 0.62221,0 0.31173,-0.31172 0.21431,-2.08092 0.62221,-2.48882 0.46626,-0.46626 16.07903,0 18.04397,0 2.48882,0 4.97765,0 7.46647,0 0.82961,0 1.68398,0.20121 2.48882,0 0.20122,-0.0503 0.0656,-0.81896 0,-0.6222 -0.74947,2.24842 -0.98085,4.62984 -1.86661,6.84426 -0.27773,0.69431 -1.00794,1.15719 -1.24442,1.86662 -0.13117,0.39352 0.13118,0.8509 0,1.24441 -1.00569,3.0171 -4.41815,4.43906 -6.22205,6.84427 -0.44868,0.59823 -0.71564,1.33784 -1.24441,1.86661 -0.14666,0.14666 -0.50716,-0.17256 -0.62221,0 -0.36381,0.54571 -0.22869,1.34193 -0.62221,1.86662 -1.13675,1.51567 -1.15049,-0.18784 -1.86661,1.24442 -0.38701,0.774 -1.00751,1.96554 -1.86662,3.11102 -0.70395,0.9386 -1.8852,1.48278 -2.48882,2.48882 -0.54402,0.90669 -0.81614,2.25449 -1.24442,3.11104 -0.26234,0.52468 -1.0589,0.68788 -1.24441,1.2444 -0.13118,0.39352 0.18551,0.87341 0,1.24442 -0.0928,0.18551 -0.47555,-0.14666 -0.6222,0 -1.28737,1.28737 1.96726,-0.0504 -0.62221,1.24441 -0.18551,0.0928 -0.47555,-0.14665 -0.62221,0 -0.2933,0.29331 0.1855,0.8734 0,1.24441 0.23257,1.35549 -1.03701,0.20741 -1.24441,0.62221 -0.54794,1.09588 0.0481,1.19632 -0.62221,1.86662 -0.14665,0.14665 -0.52945,-0.18551 -0.6222,0 -0.1855,0.37101 0.13117,0.85089 0,1.2444 -0.0928,0.27827 -0.49103,0.35986 -0.6222,0.62221 -0.5275,1.055 0,15.46085 0,18.66618 0,0.72002 0.32604,2.45894 0,3.11103 -0.69524,1.39048 -0.8332,3.33277 -1.24442,4.97765 -0.48975,1.959 0.79949,6.4897 0,8.08868 -0.0928,0.1855 -0.43669,-0.0928 -0.6222,0 -3.6311,1.81554 -10.1308,0.6222 -14.31074,0.6222 -1.03701,0 -2.1835,-0.46376 -3.11103,0 -1.33326,0.66663 -1.84751,0.30155 -2.48882,0.6222 -0.0233,0.0117 0.22555,1.46998 -0.62221,0.62221 -0.73328,-0.73327 0.18551,-2.09075 0,-3.11103 -0.2701,-1.48555 -0.81054,-2.90921 -1.24441,-4.35544 -0.2074,-0.62221 -0.4148,-1.24442 -0.62221,-1.86661 0,-0.62221 0.15091,-1.263 0,-1.86663 -0.0711,-0.28455 -0.55107,-0.33765 -0.6222,-0.6222 -0.39041,-1.56162 0.3904,-3.41604 0,-4.97765 -1.08038,-4.32149 -0.62221,-9.13219 -0.62221,-13.68853 0,-1.59911 0.55758,-9.11892 0,-9.95529 -0.87684,-1.31525 -3.22553,-4.03606 -4.35544,-4.97765 -0.45706,-0.38088 -3.17036,-2.1729 -3.73323,-3.11103 -0.33745,-0.5624 -0.28478,-1.30421 -0.62221,-1.86661 -1.29322,-2.15537 -4.47927,-3.3587 -5.59986,-5.59986 -0.52589,-1.05179 -2.18027,-3.42469 -3.11102,-4.35544 -0.70518,-0.70518 -1.97321,-0.8354 -2.48882,-1.86662 -0.26607,-0.53213 -0.35615,-1.33449 -0.62221,-1.86662 -0.37333,-0.74664 -1.4933,-1.11997 -1.86662,-1.86662 -0.18854,-0.37709 -0.36147,-1.60588 -0.62221,-1.86661 -0.14666,-0.14665 -0.52945,0.1855 -0.6222,0 -0.18551,-0.37101 0.13117,-0.8509 0,-1.24442 -0.18551,-0.55651 -0.98207,-0.71972 -1.24441,-1.24441 -0.18551,-0.37101 0.1855,-0.8734 0,-1.24441 -0.99144,-1.98286 -1.27914,-2.04024 -1.86663,-4.97764 z"
         id="path1058" />
    </g>
  </g>
</svg>
